<?xml version="1.0"?>
<svg xmlns="http://www.w3.org/2000/svg" xmlns:xlink="http://www.w3.org/1999/xlink" xmlns:svgjs="http://svgjs.com/svgjs" version="1.1" width="512" height="512" x="0" y="0" viewBox="0 0 512 512" style="enable-background:new 0 0 512 512" xml:space="preserve"><g><path xmlns="http://www.w3.org/2000/svg" d="m400.6 319.2c-44.885 0-81.4 36.516-81.4 81.399 0 44.885 36.516 81.4 81.4 81.4s81.4-36.516 81.4-81.4c0-44.883-36.517-81.399-81.4-81.399zm32.132 96.4h-32.132c-8.285 0-15-6.716-15-15v-32.133c0-8.284 6.715-15 15-15 8.283 0 15 6.716 15 15v17.133h17.133c8.285 0 15 6.716 15 15-.001 8.284-6.715 15-15.001 15z" fill="#ffffff" data-original="#000000" style=""/><path xmlns="http://www.w3.org/2000/svg" d="m0 456.833c0 30.419 24.747 55.167 55.166 55.167h345.434c-61.426 0-111.4-49.974-111.4-111.4s49.975-111.399 111.4-111.399 111.4 49.973 111.4 111.399v-242.067h-512zm406.058-243.573c2.8-2.79 6.66-4.39 10.61-4.39 3.949 0 7.81 1.6 10.6 4.39 2.801 2.79 4.4 6.66 4.4 10.61 0 3.949-1.6 7.81-4.4 10.6-2.79 2.79-6.65 4.4-10.6 4.4s-7.811-1.61-10.61-4.4c-2.79-2.79-4.39-6.65-4.39-10.6s1.6-7.82 4.39-10.61zm-64.271 0c2.801-2.79 6.66-4.39 10.61-4.39s7.81 1.6 10.61 4.39c2.79 2.8 4.39 6.66 4.39 10.61 0 3.939-1.6 7.81-4.39 10.6-2.801 2.79-6.66 4.4-10.61 4.4s-7.81-1.61-10.61-4.4c-2.789-2.79-4.39-6.66-4.39-10.6 0-3.95 1.601-7.82 4.39-10.61zm-43.05 85.479c-2.79 2.79-6.659 4.391-10.6 4.391-3.95 0-7.81-1.601-10.61-4.391-2.79-2.79-4.39-6.659-4.39-10.609s1.6-7.811 4.39-10.601 6.66-4.399 10.61-4.399 7.81 1.609 10.6 4.399 4.4 6.65 4.4 10.601c.001 3.95-1.61 7.819-4.4 10.609zm-21.21-85.479c2.79-2.79 6.66-4.39 10.61-4.39s7.81 1.6 10.6 4.39 4.4 6.66 4.4 10.61c0 3.949-1.61 7.81-4.4 10.6s-6.649 4.4-10.6 4.4-7.82-1.61-10.61-4.4-4.399-6.65-4.399-10.6 1.609-7.82 4.399-10.61zm-64.269 0c2.8-2.79 6.66-4.39 10.609-4.39 3.95 0 7.811 1.6 10.601 4.39 2.8 2.79 4.399 6.66 4.399 10.61 0 3.949-1.6 7.81-4.399 10.6-2.79 2.79-6.65 4.4-10.601 4.4-3.949 0-7.81-1.61-10.609-4.4-2.79-2.79-4.391-6.65-4.391-10.6s1.601-7.82 4.391-10.61zm0 64.269c2.79-2.79 6.66-4.399 10.609-4.399 3.95 0 7.811 1.609 10.61 4.399 2.79 2.79 4.39 6.65 4.39 10.601 0 3.95-1.6 7.819-4.39 10.609-2.8 2.79-6.67 4.391-10.61 4.391-3.949 0-7.81-1.601-10.609-4.391-2.79-2.79-4.391-6.659-4.391-10.609s1.601-7.811 4.391-10.601zm0 64.261c2.79-2.79 6.66-4.391 10.609-4.391 3.95 0 7.811 1.601 10.61 4.391 2.79 2.79 4.39 6.659 4.39 10.609s-1.6 7.82-4.39 10.61c-2.8 2.79-6.67 4.39-10.61 4.39-3.949 0-7.81-1.6-10.609-4.39-2.79-2.79-4.391-6.66-4.391-10.61s1.601-7.819 4.391-10.609zm0 64.27c2.79-2.79 6.66-4.39 10.609-4.39 3.95 0 7.811 1.6 10.61 4.39 2.79 2.79 4.39 6.66 4.39 10.61 0 3.94-1.6 7.81-4.39 10.6-2.8 2.79-6.66 4.4-10.61 4.4-3.949 0-7.819-1.61-10.609-4.4s-4.391-6.649-4.391-10.6 1.601-7.82 4.391-10.61zm-64.271-192.8c2.8-2.79 6.66-4.39 10.61-4.39s7.82 1.6 10.61 4.39 4.39 6.66 4.39 10.61c0 3.939-1.6 7.81-4.39 10.6s-6.66 4.4-10.61 4.4-7.81-1.61-10.61-4.4c-2.79-2.79-4.39-6.66-4.39-10.6.001-3.95 1.6-7.82 4.39-10.61zm.011 64.269c2.789-2.79 6.649-4.399 10.6-4.399 3.95 0 7.82 1.609 10.61 4.399s4.39 6.66 4.39 10.601c0 3.95-1.6 7.819-4.39 10.609-2.8 2.79-6.66 4.391-10.61 4.391-3.939 0-7.81-1.601-10.6-4.391-2.801-2.79-4.4-6.659-4.4-10.609s1.599-7.811 4.4-10.601zm0 64.261c2.789-2.79 6.649-4.391 10.6-4.391 3.95 0 7.82 1.601 10.61 4.391 2.79 2.8 4.39 6.659 4.39 10.609s-1.6 7.811-4.39 10.61c-2.8 2.79-6.66 4.39-10.61 4.39-3.939 0-7.81-1.6-10.6-4.39-2.801-2.79-4.4-6.66-4.4-10.61s1.599-7.819 4.4-10.609zm0 64.27c2.789-2.79 6.649-4.39 10.6-4.39 3.95 0 7.811 1.6 10.61 4.39 2.79 2.79 4.39 6.66 4.39 10.61 0 3.94-1.6 7.81-4.39 10.6-2.8 2.79-6.66 4.4-10.61 4.4s-7.81-1.61-10.6-4.4c-2.801-2.79-4.4-6.649-4.4-10.6s1.599-7.82 4.4-10.61zm-64.27-128.531c2.79-2.79 6.66-4.399 10.61-4.399 3.939 0 7.81 1.609 10.6 4.399s4.4 6.65 4.4 10.601c0 3.95-1.61 7.819-4.4 10.609s-6.66 4.391-10.6 4.391c-3.95 0-7.82-1.601-10.61-4.391s-4.39-6.659-4.39-10.609 1.6-7.811 4.39-10.601zm0 64.261c2.79-2.79 6.65-4.391 10.601-4.391 3.949 0 7.819 1.601 10.609 4.391s4.391 6.659 4.391 10.609-1.601 7.82-4.391 10.61-6.66 4.39-10.609 4.39c-3.94 0-7.811-1.6-10.601-4.39s-4.39-6.66-4.39-10.61 1.6-7.819 4.39-10.609zm0 64.27c2.79-2.79 6.66-4.39 10.601-4.39 3.949 0 7.819 1.6 10.609 4.39s4.4 6.66 4.4 10.61-1.61 7.81-4.4 10.6-6.66 4.4-10.609 4.4c-3.94 0-7.811-1.61-10.601-4.4s-4.399-6.66-4.399-10.6c-.001-3.95 1.609-7.82 4.399-10.61z" fill="#ffffff" data-original="#000000" style=""/><path xmlns="http://www.w3.org/2000/svg" d="m456.832 32.133h-35.832v-17.133c0-8.284-6.717-15-15-15-8.285 0-15 6.716-15 15v17.133h-30v-17.133c0-8.284-6.717-15-15-15-8.285 0-15 6.716-15 15v17.133h-30v-17.133c0-8.284-6.717-15-15-15-8.285 0-15 6.716-15 15v17.133h-30v-17.133c0-8.284-6.717-15-15-15-8.285 0-15 6.716-15 15v17.133h-30v-17.133c0-8.284-6.717-15-15-15-8.285 0-15 6.716-15 15v17.133h-30v-17.133c0-8.284-6.717-15-15-15-8.285 0-15 6.716-15 15v17.133h-35.834c-30.419 0-55.166 24.748-55.166 55.167v41.233h512v-41.233c0-30.419-24.748-55.167-55.168-55.167z" fill="#ffffff" data-original="#000000" style=""/></g></svg>
