<?xml version="1.0"?>
<svg xmlns="http://www.w3.org/2000/svg" xmlns:xlink="http://www.w3.org/1999/xlink" xmlns:svgjs="http://svgjs.com/svgjs" version="1.1" width="512" height="512" x="0" y="0" viewBox="0 0 512 512" style="enable-background:new 0 0 512 512" xml:space="preserve" class=""><g><g xmlns="http://www.w3.org/2000/svg"><path d="m495.482 430.348-79.01-298.109c-1.743-6.577-7.694-11.157-14.499-11.157h-86.284c38.094-48.756 3.501-121.082-59.109-121.082-62.617 0-97.198 72.333-59.109 121.081h-92.323c-6.894 0-12.899 4.698-14.559 11.389l-74.131 298.883c-.854 3.439-.461 7.07 1.107 10.249l30.613 62.037c2.527 5.119 7.742 8.361 13.452 8.361h390c5.825 0 11.123-3.372 13.589-8.649l29.354-62.81c1.489-3.186 1.811-6.794.909-10.193zm-238.902-400.348c24.813 0 45 20.187 45 45s-20.187 45-45 45-45-20.187-45-45 20.187-45 45-45zm14.166 368.097v7.501c0 8.284-6.716 15-15 15s-15-6.716-15-15v-6.387c-11.294-1.9-21.984-6.077-30.133-11.407-6.933-4.535-8.876-13.832-4.341-20.764 4.534-6.934 13.831-8.876 20.765-4.341 11.395 7.453 29.251 9.878 38.993 5.295 7.149-3.364 12.493-10.468 13.298-17.679 1.673-15.003-15.36-21.734-28.404-26.886-13.634-5.385-29.087-11.488-37.954-27.498-12.848-23.197-.626-54.889 27.776-63.612v-6.319c0-8.284 6.716-15 15-15s15 6.716 15 15v5.26c8.999 1.965 17.41 5.962 23.848 11.9 6.09 5.616 6.473 15.106.856 21.196-5.616 6.089-15.105 6.474-21.196.856-5.967-5.503-21.197-7.542-29.197-2.164-6.321 4.25-8.998 12.653-5.844 18.348 6.854 12.374 31.293 13.596 50.263 28.378 35.636 27.772 19.769 77.568-18.73 88.323z" fill="#ffffff" data-original="#000000" style="" class=""/></g></g></svg>
