<?xml version="1.0"?>
<svg xmlns="http://www.w3.org/2000/svg" xmlns:xlink="http://www.w3.org/1999/xlink" xmlns:svgjs="http://svgjs.com/svgjs" version="1.1" width="512" height="512" x="0" y="0" viewBox="0 0 64 64" style="enable-background:new 0 0 512 512" xml:space="preserve" class=""><g><path xmlns="http://www.w3.org/2000/svg" d="m7 54.142v2.858h2.858c-.363-1.399-1.459-2.495-2.858-2.858z" fill="#ffffff" data-original="#000000" style="" class=""/><path xmlns="http://www.w3.org/2000/svg" d="m17 48c0-3.72 1.861-7.008 4.695-9h-9.785c-.423 2.507-2.403 4.486-4.91 4.91v8.181c2.507.423 4.486 2.403 4.91 4.91h9.786c-2.835-1.993-4.696-5.281-4.696-9.001z" fill="#ffffff" data-original="#000000" style="" class=""/><path xmlns="http://www.w3.org/2000/svg" d="m37 48c0-4.963-4.037-9-9-9s-9 4.037-9 9 4.037 9 9 9 9-4.037 9-9zm-6-3h-4v2h4v6h-2v2h-2v-2h-2v-2h4v-2h-4v-6h2v-2h2v2h2z" fill="#ffffff" data-original="#000000" style="" class=""/><path xmlns="http://www.w3.org/2000/svg" d="m46.142 57h2.858v-2.858c-1.399.363-2.495 1.459-2.858 2.858z" fill="#ffffff" data-original="#000000" style="" class=""/><path xmlns="http://www.w3.org/2000/svg" d="m9.858 39h-2.858v2.858c1.399-.363 2.495-1.459 2.858-2.858z" fill="#ffffff" data-original="#000000" style="" class=""/><path xmlns="http://www.w3.org/2000/svg" d="m43 8.586 2-2 1 1v-4.586h-6v4.586l1-1z" fill="#ffffff" data-original="#000000" style="" class=""/><path xmlns="http://www.w3.org/2000/svg" d="m48 3v9.414l-3-3-2 2-2-2-3 3v-9.414h-13v26h20v-12h16v-14z" fill="#ffffff" data-original="#000000" style="" class=""/><path xmlns="http://www.w3.org/2000/svg" d="m11 29h2v-4h-2c-1.103 0-2 .897-2 2s.897 2 2 2z" fill="#ffffff" data-original="#000000" style="" class=""/><path xmlns="http://www.w3.org/2000/svg" d="m44.09 39h-9.786c2.835 1.992 4.696 5.28 4.696 9s-1.861 7.008-4.695 9h9.786c.423-2.507 2.403-4.486 4.91-4.91v-8.18c-2.508-.424-4.487-2.403-4.911-4.91z" fill="#ffffff" data-original="#000000" style="" class=""/><path xmlns="http://www.w3.org/2000/svg" d="m9 30.444v2.556h46v24h2v-26h-46c-.732 0-1.409-.212-2-.556z" fill="#ffffff" data-original="#000000" style="" class=""/><path xmlns="http://www.w3.org/2000/svg" d="m47 29h12v6h2v-16h-14zm6-8h6v2h-6zm-4 0h2v2h-2zm0 4h10v2h-10z" fill="#ffffff" data-original="#000000" style="" class=""/><path xmlns="http://www.w3.org/2000/svg" d="m3 61h50v-26h-50zm2-24h46v22h-46z" fill="#ffffff" data-original="#000000" style="" class=""/><path xmlns="http://www.w3.org/2000/svg" d="m49 41.858v-2.858h-2.858c.363 1.399 1.459 2.495 2.858 2.858z" fill="#ffffff" data-original="#000000" style="" class=""/></g></svg>
