<?xml version="1.0"?>
<svg xmlns="http://www.w3.org/2000/svg" viewBox="0 0 512 512" width="512" height="512"><g id="Out_line" data-name="Out line"><path d="M152,240H136a8,8,0,0,0,0,16h16a8,8,0,0,0,0-16Z"/><path d="M216,256h16a8,8,0,0,0,0-16H216a8,8,0,0,0,0,16Z"/><path d="M184.41064,282.53027a8,8,0,1,0,15.17872-5.06054l-8-24a8,8,0,1,0-15.17872,5.06054Z"/><circle cx="144" cy="264" r="8"/><circle cx="224" cy="264" r="8"/><path d="M176,320h16a8,8,0,0,0,0-16H176a8,8,0,0,0,0,16Z"/><path d="M294.82617,377.832a117.26358,117.26358,0,0,0-55.10473-17.60156,23.89529,23.89529,0,0,0-6.27759-8.10742l-11.57044-9.64185A80.24783,80.24783,0,0,0,262.37354,288H264a31.98859,31.98859,0,0,0,16-59.69482v-24.9917A35.31326,35.31326,0,0,0,244.68652,168h-.8374a17.94584,17.94584,0,0,0-5.26367-12.72852l-5.12988-5.12988a75.59861,75.59861,0,0,0-106.91114,0l-21.17138,21.17188a1.94211,1.94211,0,0,1-2.74561,0A17.94137,17.94137,0,0,0,72,184v7.0293a48.65073,48.65073,0,0,0,14.34326,34.62793c.77442.77441,1.57752,1.5083,2.39331,2.22387A31.996,31.996,0,0,0,104,288h1.62646a80.24989,80.24989,0,0,0,39.27784,53.79883,22.68107,22.68107,0,0,0-7.702,18.13281c-.40027.0293-.79846.06836-1.20471.06836h-.646A117.31625,117.31625,0,0,0,21.53809,448.8623,185.66081,185.66081,0,0,0,16,493.84961V496H32v-2.15039a169.63977,169.63977,0,0,1,5.06055-41.10645A100.78814,100.78814,0,0,1,80,392.48975V432a7.99988,7.99988,0,0,0,10.97119,7.42773l10.64453-4.25781L73.44629,475.41211l13.10742,9.17578,51.81445-74.02051,49.4961,28.28418a7.99833,7.99833,0,0,1,2.56347,11.56348l-23.30517,32.9668,13.06543,9.23632,23.30517-32.96679a23.9591,23.9591,0,0,0-.73071-28.66822L237.27979,384.96a23.92461,23.92461,0,0,0,4.07836-8.57666c1.46729.12647,2.92884.29077,4.38623.48071l-16.14282,69.95142A219.06764,219.06764,0,0,0,224,496h16a203.04474,203.04474,0,0,1,5.19141-45.58691l5.01147-21.71582,26.82593,10.73046A7.99957,7.99957,0,0,0,288,432V392.48975a100.78814,100.78814,0,0,1,42.93945,60.25341A169.63977,169.63977,0,0,1,336,493.84961V496h16v-2.15039a185.66081,185.66081,0,0,0-5.53809-44.98731A116.75468,116.75468,0,0,0,294.82617,377.832ZM264,272V240a16,16,0,0,1,0,32ZM88,184a1.94147,1.94147,0,0,1,3.31445-1.37207,17.96225,17.96225,0,0,0,25.37159,0l21.17187-21.17188a59.59737,59.59737,0,0,1,84.28418,0l5.12988,5.12989a2.00191,2.00191,0,0,1,0,2.82812l-8.92871,8.92871a8.00018,8.00018,0,0,0,11.31348,11.31446L235.314,184h9.37256A19.31415,19.31415,0,0,1,264,203.31348V224H253.25488a23.83777,23.83777,0,0,1-16.9707-7.03027l-22.62744-22.627a8.00182,8.00182,0,0,0-11.31348,0A100.5903,100.5903,0,0,1,130.74512,224H120.9707A32.971,32.971,0,0,1,88,191.0293Zm0,72a16.01833,16.01833,0,0,1,16-16v32A16.01833,16.01833,0,0,1,88,256Zm32,16V239.97632c.32385.00635.64587.02368.9707.02368h9.77442a116.39328,116.39328,0,0,0,77.0664-28.875l17.15869,17.1582A39.685,39.685,0,0,0,248,239.64917V272a64.12048,64.12048,0,0,1-39.91162,59.30713,23.98334,23.98334,0,0,0-32.62158,7.0708l-1.68555,2.52832-1.353-.90234a22.93736,22.93736,0,0,0-4.78637-2.436,7.9954,7.9954,0,0,0-4.97779-5.20849A64.11266,64.11266,0,0,1,120,272Zm15.99756,104a32.08733,32.08733,0,0,0,6.70276-.71167l.06823.13647-13.37011,20.05567-2.14112,3.05859-5.00256-21.67822A101.46763,101.46763,0,0,1,135.35156,376ZM96,383.96777a101.08685,101.08685,0,0,1,10.599-3.79492l7.55725,32.74878L96,420.18359Zm128.48-8.60742-34.64246,46.18994-42.42688-24.24438,11.24561-16.86841a7.999,7.999,0,0,0,.499-8.01562l-5.28076-10.56153a6.67886,6.67886,0,0,1,9.67822-8.54394l8.00977,5.33984a7.99991,7.99991,0,0,0,11.09375-2.21875l6.12305-9.18457a8.00029,8.00029,0,0,1,11.77832-1.708l22.64355,18.86914A7.997,7.997,0,0,1,224.48,375.36035Zm29.36353,37.56079,7.55822-32.75195A101.33249,101.33249,0,0,1,272,383.96777v36.21582Z"/><path d="M404,16H380a92.02348,92.02348,0,0,0-79.73877,137.918L288.41064,189.4707A7.99946,7.99946,0,0,0,295.99951,200a8.0981,8.0981,0,0,0,1.31543-.1084l45.72119-7.61816A91.27669,91.27669,0,0,0,380,200h24a92,92,0,0,0,0-184Zm53.74316,145.74316A75.5064,75.5064,0,0,1,404,184H380a75.40431,75.40431,0,0,1-32.45312-7.25293,8.007,8.007,0,0,0-4.73194-.6582L307.791,181.9248l8.81836-26.45605a7.99738,7.99738,0,0,0-.83643-6.81836A76.00436,76.00436,0,0,1,380,32h24a76.00431,76.00431,0,0,1,53.74316,129.74316Z"/><path d="M392,43.71582a36.04845,36.04845,0,0,0-25.65674,10.627c-.04785.04785-.09521.09668-.14209.14551l-3.73926,3.93457A22.14229,22.14229,0,0,0,393.855,89.65723l3.80176-3.80176A8.00018,8.00018,0,0,0,386.34326,74.541l-3.80176,3.80175a6.14164,6.14164,0,0,1-9.45361-.93554,6.15817,6.15817,0,0,1,.76709-7.75c.04785-.04785.09522-.09668.14209-.14551l3.72607-3.9209a20.2842,20.2842,0,0,1,28.62012,28.752l-8.687,8.6875A46.32292,46.32292,0,0,0,384,136a8,8,0,0,0,16,0,30.427,30.427,0,0,1,8.97021-21.65625l8.68653-8.68652A36.28418,36.28418,0,0,0,392,43.71582Z"/><circle cx="392" cy="160" r="8"/></g></svg>
