<?xml version="1.0"?>
<svg xmlns="http://www.w3.org/2000/svg" xmlns:xlink="http://www.w3.org/1999/xlink" xmlns:svgjs="http://svgjs.com/svgjs" version="1.1" width="512" height="512" x="0" y="0" viewBox="0 0 64 64" style="enable-background:new 0 0 512 512" xml:space="preserve" class=""><g><path xmlns="http://www.w3.org/2000/svg" d="m61 11h-1c-2.761 0-5 2.239-5 5h-.422c-.772-1.764-2.529-3-4.578-3h-1c0 2.761 2.239 5 5 5v3h-3l1 7h-31v-3h-6v-3h9v-14h-20v14h9v3h-6v3h-4v4h3v24h52v-24h3v-4h-4l1-7h-2v-5c2.761 0 5-2.239 5-5z" fill="#ffffff" data-original="#000000" style=""/><path xmlns="http://www.w3.org/2000/svg" d="m38 7h-8c0 1.856.843 3.514 2.167 4.615-.105.445-.167.907-.167 1.385 0 3.314 2.686 6 6 6s6-2.686 6-6-2.686-6-6-6z" fill="#ffffff" data-original="#000000" style=""/><path xmlns="http://www.w3.org/2000/svg" d="m31 26v1h14v-1c0-3.526-2.609-6.434-6-6.92v5.92h-2v-5.92c-3.391.486-6 3.394-6 6.92z" fill="#ffffff" data-original="#000000" style=""/></g></svg>
