<svg height="368pt" viewBox="0 0 368 368" width="368pt" xmlns="http://www.w3.org/2000/svg"><path d="m184 0c-101.464844 0-184 82.542969-184 184s82.535156 184 184 184 184-82.542969 184-184-82.535156-184-184-184zm0 352c-92.632812 0-168-75.359375-168-168s75.367188-168 168-168 168 75.359375 168 168-75.367188 168-168 168zm0 0"/><path d="m216 128c13.230469 0 24 10.769531 24 24 0 4.414062 3.574219 8 8 8s8-3.585938 8-8c0-22.054688-17.945312-40-40-40h-24v-32c0-4.414062-3.574219-8-8-8s-8 3.585938-8 8v32h-24c-11.238281 0-22.039062 4.777344-29.601562 13.097656-7.558594 8.316406-11.285157 19.542969-10.207032 30.804688 1.9375 20.242187 20.023438 36.097656 41.183594 36.097656h22.625v48h-24c-13.230469 0-24-10.769531-24-24 0-4.414062-3.574219-8-8-8s-8 3.585938-8 8c0 22.054688 17.945312 40 40 40h24v32c0 4.414062 3.574219 8 8 8s8-3.585938 8-8v-32h22.625c21.160156 0 39.246094-15.855469 41.183594-36.097656 1.078125-11.253906-2.648438-22.488282-10.207032-30.804688-7.5625-8.320312-18.363281-13.097656-29.601562-13.097656h-24v-48zm-40 48h-22.625c-13.007812 0-24.101562-9.496094-25.261719-21.617188-.65625-6.878906 1.519531-13.460937 6.125-18.519531 4.539063-5 11.007813-7.863281 17.761719-7.863281h24zm40 16c6.753906 0 13.222656 2.863281 17.769531 7.863281 4.597657 5.066407 6.78125 11.640625 6.125 18.519531-1.167969 12.121094-12.261719 21.617188-25.269531 21.617188h-22.625v-48zm0 0"/></svg>